# xmcd
#
# Track frame offsets:
#	150
#	6911
#	23469
#	48278
#	62074
#	77414
#	114058
#	140111
#	166836
#	190318
#	222595
#	245116
#	261573
#
# Disc length: 3728 seconds
#
# Revision: 0
# Processed by: cddbd v1.5.1PL2 Copyright (c) Steve Scherf et al.
# Submitted via: EasyCDDAExtractor 9.1.0.1
#
DISCID=b20e8e0d
DTITLE=Naty - Long time no see
DYEAR=1900
DGENRE=
TTITLE0=intro
TTITLE1=cutter
TTITLE2=다 가져가
TTITLE3=착각
TTITLE4=chance of once
TTITLE5=빈자리
TTITLE6=get stone
TTITLE7=길
TTITLE8=잊었어
TTITLE9=bang
TTITLE10=벌거숭이
TTITLE11=밤차
TTITLE12=불놀이야
EXTD=
EXTT0=
EXTT1=
EXTT2=
EXTT3=
EXTT4=
EXTT5=
EXTT6=
EXTT7=
EXTT8=
EXTT9=
EXTT10=
EXTT11=
EXTT12=
PLAYORDER=
